<svg width="20" height="20" viewBox="0 0 20 20" fill="none" xmlns="http://www.w3.org/2000/svg">
<path d="M13.0629 8.9479C13.4023 8.63705 13.4255 8.10992 13.1146 7.77052C12.8038 7.43112 12.2767 7.40797 11.9372 7.71881L8.86052 10.5367L8.06292 9.80618C7.72352 9.49533 7.19639 9.51848 6.88554 9.85788C6.5747 10.1973 6.59784 10.7244 6.93725 11.0353L8.29768 12.2812C8.6162 12.573 9.10483 12.573 9.42335 12.2812L13.0629 8.9479Z" fill="#099137"/>
<path fill-rule="evenodd" clip-rule="evenodd" d="M10.0001 1.66669C5.39771 1.66669 1.66675 5.39765 1.66675 10C1.66675 14.6024 5.39771 18.3334 10.0001 18.3334C14.6025 18.3334 18.3334 14.6024 18.3334 10C18.3334 5.39765 14.6025 1.66669 10.0001 1.66669ZM3.33341 10C3.33341 6.31812 6.31818 3.33335 10.0001 3.33335C13.682 3.33335 16.6667 6.31812 16.6667 10C16.6667 13.6819 13.682 16.6667 10.0001 16.6667C6.31818 16.6667 3.33341 13.6819 3.33341 10Z" fill="#099137"/>
</svg>
