<svg width="18" height="18" viewBox="0 0 18 18" fill="none" xmlns="http://www.w3.org/2000/svg">
<path d="M7.82154 6.643C7.4961 6.31756 6.96847 6.31756 6.64303 6.643C6.31759 6.96843 6.31759 7.49607 6.64303 7.82151L7.82154 9.00002L6.64303 10.1785C6.31759 10.504 6.31759 11.0316 6.64303 11.357C6.96847 11.6825 7.4961 11.6825 7.82154 11.357L9.00005 10.1785L10.1786 11.357C10.504 11.6825 11.0316 11.6825 11.3571 11.357C11.6825 11.0316 11.6825 10.504 11.3571 10.1785L10.1786 9.00002L11.3571 7.82151C11.6825 7.49607 11.6825 6.96843 11.3571 6.643C11.0316 6.31756 10.504 6.31756 10.1786 6.643L9.00005 7.82151L7.82154 6.643Z" fill="#CB1A14"/>
<path fill-rule="evenodd" clip-rule="evenodd" d="M9.00008 0.666687C4.39771 0.666687 0.666748 4.39765 0.666748 9.00002C0.666748 13.6024 4.39771 17.3334 9.00008 17.3334C13.6025 17.3334 17.3334 13.6024 17.3334 9.00002C17.3334 4.39765 13.6025 0.666687 9.00008 0.666687ZM2.33341 9.00002C2.33341 5.31812 5.31818 2.33335 9.00008 2.33335C12.682 2.33335 15.6667 5.31812 15.6667 9.00002C15.6667 12.6819 12.682 15.6667 9.00008 15.6667C5.31818 15.6667 2.33341 12.6819 2.33341 9.00002Z" fill="#CB1A14"/>
</svg>
